<svg id="Layer_1" data-name="Layer 1" xmlns="http://www.w3.org/2000/svg" viewBox="0 0 102 51.39"><defs><style>.cls-1{fill:#fff;}</style></defs><title>RGB_logo_webassembly</title><path class="cls-1" d="M33.89,47.23L8.34,8.39h6.53l19,28.82L37.29,32,21.79,8.39h6.52L47.24,37.14l3.4-5.08L35.09,8.39h6.52l24.56,37H59.65L53.9,36.62,47.24,46.81l-6.69-10ZM10.14,9.39L33.88,45.45,40.54,35l6.7,10.08L53.9,34.86l6.28,9.53h4.19l-23.28-35H36.89L51.81,31.94l-4.57,7.13L27.79,9.39H23.59L38.45,31.91l-4.61,7.25L14.34,9.39h-4.2Z"/><polygon class="cls-1" points="59.78 26.01 67.51 14.08 87.98 45.39 93.34 45.39 67.5 5.86 57.09 21.86 59.78 26.01"/></svg>