<svg id="Layer_1" data-name="Layer 1" xmlns="http://www.w3.org/2000/svg" viewBox="0 0 389 197"><defs><style>.cls-1{fill:#fff;}</style></defs><title>RGB_logo_webassembly</title><path class="cls-1" d="M130,181.3L27.84,25H54l75.89,116.24L143.63,120l-62-95h26.1l75.71,115.92,13.61-20.78L134.84,25h26.08l98.24,150H233.08l-23-35.15-26.61,40.74-26.78-40.5ZM35.06,29l95,145.18L156.65,133l26.79,40.56,26.62-40.88L235.19,171h16.75L158.8,29H142.06l59.67,91.13-18.28,28.06L105.63,29H88.86l59.43,91-18.43,28.54L51.84,29H35.06Z"/><polygon class="cls-1" points="233.61 97.36 264.52 49.69 346.42 175 367.84 175 264.49 16.8 222.86 80.79 233.61 97.36"/></svg>