<svg id="Layer_1" data-name="Layer 1" xmlns="http://www.w3.org/2000/svg" viewBox="0 0 228 145.28"><defs><style>.cls-1{fill:#fff;}</style></defs><title>RGB_logo_webassembly</title><g id="mono_big" data-name="mono big"><path class="cls-1" d="M72.43,94.24L20.11,14H33.48L72.34,73.73l7.06-11L47.66,14H61L99.78,73.57l7-10.75L74.89,14H88.24l50.3,77H125.18L113.4,73.13,99.78,94,86.07,73.23ZM23.81,16L72.42,90.58l13.64-21L99.77,90.45l13.63-21L126.27,89h8.58L87.16,16H78.59l30.55,46.9L99.78,77.14,59.94,16H51.35L81.78,62.83,72.34,77.32,32.4,16H23.81Z"/><polygon class="cls-1" points="125.46 51.5 141.28 26.97 183.21 91 194.18 91 141.26 10.13 119.95 42.95 125.46 51.5"/><path class="cls-1" d="M40.15,111.31l-4.46,17.5H31.47l-2.37-9.19q-0.12-.44-0.44-2t-0.37-2.1a18.6,18.6,0,0,1-.36,2.09l-0.44,2-2.37,9.16h-4.2l-4.47-17.5h3.64l2.25,9.55q0.61,2.81.85,4.59,0.07-.69.31-2t0.5-2.29l2.55-9.8h3.5l2.55,9.8q0.16,0.57.41,2,0.21,1.08.39,2.31,0.11-.8.38-2.27t0.49-2.31l2.22-9.55h3.66Z"/><path class="cls-1" d="M55.06,125.75v3.06H45v-17.5H55.06v3H48.7v3.84h5.92v3H48.7v4.52h6.36Z"/><path class="cls-1" d="M61.35,128.81v-17.5h5.44a10.53,10.53,0,0,1,5.4,1.06,3.68,3.68,0,0,1,1.69,3.37,4.27,4.27,0,0,1-.73,2.57,3,3,0,0,1-2,1.22v0.12A3.87,3.87,0,0,1,73.56,121a5,5,0,0,1-1,6.46,7.49,7.49,0,0,1-4.69,1.34H61.35Zm3.71-14.46v3.88h2.15a3.94,3.94,0,0,0,2.19-.47,1.7,1.7,0,0,0,.67-1.5,1.58,1.58,0,0,0-.73-1.48,4.73,4.73,0,0,0-2.34-.44H65.06Zm2.29,6.84H65.06v4.56h2.41a3.59,3.59,0,0,0,2.26-.59,2.16,2.16,0,0,0,.73-1.8Q70.46,121.19,67.35,121.19Z"/><path class="cls-1" d="M93.74,128.81h-2.1l-2.18-5.56h-7l-2.15,5.56H78.24l6.92-17.57h1.72Zm-10.57-7.4h5.65l-2-5.43q-0.41-1.12-.81-2.53a21.94,21.94,0,0,1-.74,2.53Z"/><path class="cls-1" d="M108.65,124.15a4.3,4.3,0,0,1-1.67,3.6,7.47,7.47,0,0,1-4.67,1.29,11.1,11.1,0,0,1-4.67-.8v-2a12.56,12.56,0,0,0,4.87,1,5.16,5.16,0,0,0,3.05-.76,2.52,2.52,0,0,0,1-2.17,2.7,2.7,0,0,0-.37-1.48,3.55,3.55,0,0,0-1.23-1.08,16,16,0,0,0-2.59-1.12,8.32,8.32,0,0,1-3.49-2.06,4.63,4.63,0,0,1-1.06-3.18,3.85,3.85,0,0,1,1.52-3.18,6.49,6.49,0,0,1,4.09-1.2,11.73,11.73,0,0,1,4.74,1l-0.64,1.78a10.75,10.75,0,0,0-4.2-.92,4.08,4.08,0,0,0-2.53.7,2.29,2.29,0,0,0-.91,1.92,2.94,2.94,0,0,0,.33,1.49,3.39,3.39,0,0,0,1.14,1.08,13.54,13.54,0,0,0,2.45,1.06,9.37,9.37,0,0,1,3.78,2.11A4.11,4.11,0,0,1,108.65,124.15Z"/><path class="cls-1" d="M124.74,124.15a4.3,4.3,0,0,1-1.67,3.6A7.47,7.47,0,0,1,118.4,129a11.1,11.1,0,0,1-4.67-.8v-2a12.56,12.56,0,0,0,4.87,1,5.16,5.16,0,0,0,3.05-.76,2.52,2.52,0,0,0,1-2.17,2.7,2.7,0,0,0-.37-1.48,3.55,3.55,0,0,0-1.23-1.08,16,16,0,0,0-2.59-1.12,8.32,8.32,0,0,1-3.49-2.06,4.63,4.63,0,0,1-1.06-3.18,3.85,3.85,0,0,1,1.52-3.18,6.49,6.49,0,0,1,4.09-1.2,11.73,11.73,0,0,1,4.74,1l-0.64,1.78a10.75,10.75,0,0,0-4.2-.92,4.08,4.08,0,0,0-2.53.7,2.29,2.29,0,0,0-.91,1.92,2.94,2.94,0,0,0,.33,1.49,3.39,3.39,0,0,0,1.14,1.08,13.54,13.54,0,0,0,2.45,1.06,9.37,9.37,0,0,1,3.78,2.11A4.11,4.11,0,0,1,124.74,124.15Z"/><path class="cls-1" d="M140.71,127v1.82H131v-17.5h9.75v1.81H133v5.64h7.25v1.8H133V127h7.71Z"/><path class="cls-1" d="M149.1,117.68v11.13h-1.87v-17.5h3.06l5.55,14.44h0.09l5.59-14.44h3v17.5h-2V117.53q0-2,.17-4.22h-0.11l-6,15.49H155L149,113.3h-0.09Q149.1,115.14,149.1,117.68Z"/><path class="cls-1" d="M172,128.81v-17.5h4.95a9.28,9.28,0,0,1,5,1,3.69,3.69,0,0,1,1.55,3.29,3.79,3.79,0,0,1-.87,2.57,4.23,4.23,0,0,1-2.52,1.31v0.12q4,0.68,4,4.19a4.49,4.49,0,0,1-1.59,3.66,6.76,6.76,0,0,1-4.44,1.32H172Zm2-15.73v5.73h3.35a5.44,5.44,0,0,0,3.1-.68,2.54,2.54,0,0,0,.94-2.21,2.38,2.38,0,0,0-1-2.19,6.58,6.58,0,0,0-3.36-.65h-3Zm3.64,14q4.27,0,4.27-3.34a2.79,2.79,0,0,0-1.09-2.45,5.82,5.82,0,0,0-3.34-.77H174v6.56h3.64Z"/><path class="cls-1" d="M200.25,128.81H190.5v-17.5h2V127h7.71v1.85Z"/><path class="cls-1" d="M210.61,128.81h-2.06v-6.69l-5.83-10.81h2.22l4.64,8.75,4.67-8.75h2.2L210.61,122v6.78Z"/></g></svg>