<svg id="Layer_1" data-name="Layer 1" xmlns="http://www.w3.org/2000/svg" viewBox="0 0 377 191"><defs><style>.cls-1{fill:#333;}</style></defs><title>RGB_logo_webassembly</title><g id="no_text_big" data-name="no text big"><path class="cls-1" d="M117.41,182.15L12.78,22H39.51l77.71,119.13,14.11-21.79L67.87,22H94.59l77.52,118.8L186,119.47,122.33,22H149l0.59,0.91L249.62,176H222.92l-23.56-36.08-27.24,41.67L144.7,140ZM20.17,26l97.23,148.82,27.27-42.09L172.1,174.3l27.26-41.7L225.08,172h17.15L146.87,26H129.72l61.1,93.47-18.72,28.65L92.43,26H75.25l60.85,93.33-18.87,29.14L37.35,26H20.17Z"/><polygon class="cls-1" points="223.46 96.32 255.12 47.61 338.97 176 360.9 176 255.08 13.93 212.45 79.4 223.46 96.32"/></g></svg>