<svg id="Layer_1" data-name="Layer 1" xmlns="http://www.w3.org/2000/svg" viewBox="0 0 193 100"><defs><style>.cls-1{fill:#333;}</style></defs><title>RGB_logo_webassembly</title><g id="no_text_big" data-name="no text big"><path class="cls-1" d="M61.51,91.87L9.84,13H23.07L61.41,71.68l7-10.83L37,13H50.25L88.5,71.52l6.87-10.6L63.91,13H77.12l49.67,76H113.57L101.95,71,88.51,91.43,75,71ZM13.54,15l48,73.2L75,67.32,88.5,87.8,102,67.38,114.66,87h8.43L76,15H67.61L97.76,60.91,88.51,75.18,49.17,15H40.73l30,45.84L61.42,75.36,22,15H13.54Z"/><polygon class="cls-1" points="113.85 49.27 129.47 25.43 170.86 89 181.69 89 129.46 8.81 108.42 41.02 113.85 49.27"/></g></svg>