<svg id="Layer_1" data-name="Layer 1" xmlns="http://www.w3.org/2000/svg" viewBox="0 0 114 72.64"><defs><style>.cls-1{fill:#fff;}</style></defs><title>RGB_logo_webassembly</title><g id="mono_big" data-name="mono big"><path class="cls-1" d="M36.44,47.83L10.28,7.64H17L36.39,37.57l3.53-5.52L24.05,7.64h6.68L50.11,37.49l3.48-5.41L37.67,7.64h6.68l25.15,39H62.82l-5.89-9.12L50.12,47.89,43.26,37.4ZM12.13,8.64L36.44,46l6.82-10.45L50.11,46l6.82-10.3,6.43,10h4.29L43.8,8.64H39.52L54.79,32.16l-4.68,7.09L30.19,8.64H25.9L41.11,32.12,36.4,39.33l-20-30.69h-4.3Z"/><polygon class="cls-1" points="62.95 26.52 70.87 14.44 91.83 46.64 97.31 46.64 70.86 6.02 60.2 22.34 62.95 26.52"/><path class="cls-1" d="M20.3,56.42l-2.23,8.75H16l-1.18-4.6q-0.06-.22-0.22-1t-0.19-1.05a9.3,9.3,0,0,1-.18,1l-0.22,1-1.18,4.58h-2.1L8.45,56.42h1.82L11.4,61.2q0.31,1.4.43,2.29,0-.35.16-1t0.25-1.15l1.28-4.9h1.75l1.28,4.9q0.08,0.29.21,1,0.11,0.54.19,1.16,0.05-.4.19-1.14t0.24-1.16l1.11-4.77H20.3Z"/><path class="cls-1" d="M27.75,63.64v1.53h-5V56.42h5v1.52H24.58v1.92h3v1.52h-3v2.26h3.18Z"/><path class="cls-1" d="M30.9,65.17V56.42h2.72a5.26,5.26,0,0,1,2.7.53,1.84,1.84,0,0,1,.84,1.69,2.13,2.13,0,0,1-.37,1.28,1.48,1.48,0,0,1-1,.61v0.06a1.94,1.94,0,0,1,1.19.69,2.52,2.52,0,0,1-.49,3.23,3.75,3.75,0,0,1-2.34.67H30.9Zm1.86-7.23v1.94h1.08a2,2,0,0,0,1.09-.23,0.85,0.85,0,0,0,.34-0.75,0.79,0.79,0,0,0-.37-0.74,2.36,2.36,0,0,0-1.17-.22h-1Zm1.14,3.42H32.75v2.28H34a1.8,1.8,0,0,0,1.13-.29,1.08,1.08,0,0,0,.37-0.9Q35.45,61.36,33.9,61.36Z"/><path class="cls-1" d="M47.1,65.17H46L45,62.39h-3.5l-1.08,2.78h-1l3.46-8.79h0.86Zm-5.29-3.7h2.83l-1-2.71q-0.21-.56-0.41-1.26a11,11,0,0,1-.37,1.26Z"/><path class="cls-1" d="M54.55,62.85a2.15,2.15,0,0,1-.83,1.8,3.74,3.74,0,0,1-2.33.65A5.55,5.55,0,0,1,49,64.9v-1a6.28,6.28,0,0,0,2.43.49A2.58,2.58,0,0,0,53,64a1.26,1.26,0,0,0,.52-1.08,1.35,1.35,0,0,0-.18-0.74,1.78,1.78,0,0,0-.62-0.54,8,8,0,0,0-1.3-.56,4.16,4.16,0,0,1-1.75-1,2.31,2.31,0,0,1-.53-1.59,1.92,1.92,0,0,1,.76-1.59,3.25,3.25,0,0,1,2-.6,5.86,5.86,0,0,1,2.37.48L54,57.67a5.38,5.38,0,0,0-2.1-.46,2,2,0,0,0-1.27.35,1.14,1.14,0,0,0-.46,1,1.47,1.47,0,0,0,.16.74,1.69,1.69,0,0,0,.57.54,6.77,6.77,0,0,0,1.22.53A4.69,4.69,0,0,1,54,61.39,2.06,2.06,0,0,1,54.55,62.85Z"/><path class="cls-1" d="M62.6,62.85a2.15,2.15,0,0,1-.83,1.8,3.74,3.74,0,0,1-2.33.65,5.55,5.55,0,0,1-2.34-.4v-1a6.28,6.28,0,0,0,2.43.49A2.58,2.58,0,0,0,61,64a1.26,1.26,0,0,0,.52-1.08,1.35,1.35,0,0,0-.18-0.74,1.78,1.78,0,0,0-.62-0.54,8,8,0,0,0-1.3-.56,4.16,4.16,0,0,1-1.75-1,2.31,2.31,0,0,1-.53-1.59A1.92,1.92,0,0,1,58,56.89a3.25,3.25,0,0,1,2-.6,5.86,5.86,0,0,1,2.37.48l-0.32.89a5.38,5.38,0,0,0-2.1-.46,2,2,0,0,0-1.27.35,1.14,1.14,0,0,0-.46,1,1.47,1.47,0,0,0,.16.74,1.69,1.69,0,0,0,.57.54,6.77,6.77,0,0,0,1.22.53,4.69,4.69,0,0,1,1.89,1.06A2.06,2.06,0,0,1,62.6,62.85Z"/><path class="cls-1" d="M70.58,64.26v0.91H65.71V56.42h4.87v0.9H66.72v2.82h3.62V61H66.72v3.22h3.86Z"/><path class="cls-1" d="M74.78,59.61v5.57H73.84V56.42h1.53l2.77,7.22h0L81,56.42H82.5v8.75h-1V59.54q0-1,.09-2.11H81.52l-3,7.75H77.71l-3-7.75h0Q74.78,58.34,74.78,59.61Z"/><path class="cls-1" d="M86.22,65.17V56.42h2.47a4.64,4.64,0,0,1,2.52.52A1.84,1.84,0,0,1,92,58.59a1.89,1.89,0,0,1-.44,1.29,2.11,2.11,0,0,1-1.26.65v0.06a2,2,0,0,1,2,2.09,2.24,2.24,0,0,1-.79,1.83,3.38,3.38,0,0,1-2.22.66H86.22Zm1-7.87v2.87h1.68a2.72,2.72,0,0,0,1.55-.34,1.27,1.27,0,0,0,.47-1.11,1.19,1.19,0,0,0-.52-1.09,3.29,3.29,0,0,0-1.68-.33h-1.5Zm1.82,7q2.13,0,2.13-1.67a1.39,1.39,0,0,0-.55-1.22A2.91,2.91,0,0,0,89,61H87.24v3.28h1.82Z"/><path class="cls-1" d="M100.35,65.17H95.48V56.42h1v7.83h3.86v0.92Z"/><path class="cls-1" d="M105.53,65.17h-1V61.83l-2.91-5.41h1.11L105,60.8l2.33-4.38h1.1l-2.92,5.36v3.39Z"/></g></svg>