<svg id="Layer_1" data-name="Layer 1" xmlns="http://www.w3.org/2000/svg" viewBox="0 0 194 97.75"><defs><style>.cls-1{fill:#fff;}</style></defs><title>RGB_logo_webassembly</title><path class="cls-1" d="M61.93,91.16L10.84,13H23.9L61.84,71.13l6.89-10.62L37.74,13h13L88.65,71l6.81-10.39L64.34,13h13L126.5,88h-13L102,70.44,88.65,90.81,75.26,70.56ZM14.45,15L61.93,87.6,75.24,67,88.64,87.3,102,66.85,114.51,86h8.38L76.32,15H67.95L97.78,60.58l-9.14,14L49.73,15H41.35L71.06,60.51,61.85,74.77,22.84,15H14.45Z"/><polygon class="cls-1" points="113.72 49.2 129.18 25.36 170.13 88 180.84 88 129.16 8.91 108.35 40.91 113.72 49.2"/></svg>