<svg id="Layer_1" data-name="Layer 1" xmlns="http://www.w3.org/2000/svg" viewBox="0 0 430 274"><defs><style>.cls-1{fill:#fff;}</style></defs><title>RGB_logo_webassembly</title><g id="mono_big" data-name="mono big"><path class="cls-1" d="M128.41,183.15L23.77,23H50.52l77.71,119.13,14.11-21.79L78.87,23h26.72l77.52,118.8L197,120.47,133.33,23H160L260.62,177H233.92l-23.56-36.08-27.24,41.67L155.7,141ZM31.17,27l97.23,148.82,27.27-42.09L183.1,175.3l27.26-41.7L236.08,173h17.15L157.87,27H140.72l61.1,93.47-18.72,28.65L103.43,27H86.25l60.85,93.33-18.87,29.14L48.35,27H31.17Z"/><polygon class="cls-1" points="234.46 97.32 266.12 48.61 349.97 177 371.9 177 266.08 14.93 223.45 80.4 234.46 97.32"/><path class="cls-1" d="M63.85,216.94l-8.91,35H46.48l-4.73-18.38q-0.24-.88-0.88-4t-0.75-4.2a37.21,37.21,0,0,1-.72,4.18l-0.88,4.07-4.73,18.33H25.39l-8.94-35h7.29l4.5,19.1q1.22,5.61,1.7,9.18,0.13-1.38.63-4.08t1-4.59l5.11-19.6h7l5.11,19.6q0.32,1.14.82,4,0.43,2.15.77,4.63,0.21-1.6.76-4.55t1-4.63l4.44-19.1h7.32Z"/><path class="cls-1" d="M93.67,245.83v6.12H73.53v-35H93.67V223H81v7.69H92.79v6.07H81v9H93.67Z"/><path class="cls-1" d="M106.24,251.94v-35h10.88q7.42,0,10.8,2.11t3.38,6.74a8.54,8.54,0,0,1-1.46,5.13,5.92,5.92,0,0,1-3.94,2.45v0.24a7.74,7.74,0,0,1,4.77,2.74,10.09,10.09,0,0,1-2,12.91q-3.47,2.67-9.38,2.67H106.24ZM113.67,223v7.77H118a7.88,7.88,0,0,0,4.38-.93,3.4,3.4,0,0,0,1.34-3,3.17,3.17,0,0,0-1.46-3,9.46,9.46,0,0,0-4.68-.88h-3.88Zm4.58,13.67h-4.58v9.12h4.82a7.19,7.19,0,0,0,4.52-1.17,4.32,4.32,0,0,0,1.46-3.59Q124.47,236.7,118.24,236.7Z"/><path class="cls-1" d="M171,251.94h-4.2l-4.36-11.12h-14l-4.31,11.12H140l13.83-35.14h3.43Zm-21.15-14.79H161.2l-4.07-10.85q-0.83-2.23-1.62-5.05A43.88,43.88,0,0,1,154,226.3Z"/><path class="cls-1" d="M200.85,242.63a8.59,8.59,0,0,1-3.34,7.21q-3.34,2.58-9.34,2.58t-9.35-1.6v-3.94a25.13,25.13,0,0,0,9.74,2,10.31,10.31,0,0,0,6.1-1.52,5,5,0,0,0,2.09-4.34,5.4,5.4,0,0,0-.73-3,7.1,7.1,0,0,0-2.46-2.15,32.05,32.05,0,0,0-5.19-2.24q-4.87-1.73-7-4.12a9.25,9.25,0,0,1-2.12-6.36,7.69,7.69,0,0,1,3-6.36,13,13,0,0,1,8.18-2.39,23.45,23.45,0,0,1,9.48,1.92l-1.28,3.56a21.5,21.5,0,0,0-8.41-1.83,8.16,8.16,0,0,0-5.07,1.4,4.58,4.58,0,0,0-1.82,3.84,5.88,5.88,0,0,0,.65,3,6.77,6.77,0,0,0,2.27,2.15,27.08,27.08,0,0,0,4.89,2.13q5.53,2,7.56,4.23A8.22,8.22,0,0,1,200.85,242.63Z"/><path class="cls-1" d="M233,242.63a8.59,8.59,0,0,1-3.34,7.21q-3.34,2.58-9.34,2.58t-9.35-1.6v-3.94a25.13,25.13,0,0,0,9.74,2,10.31,10.31,0,0,0,6.1-1.52,5,5,0,0,0,2.09-4.34,5.4,5.4,0,0,0-.73-3,7.1,7.1,0,0,0-2.46-2.15,32.05,32.05,0,0,0-5.19-2.24q-4.87-1.73-7-4.12a9.25,9.25,0,0,1-2.12-6.36,7.69,7.69,0,0,1,3-6.36,13,13,0,0,1,8.18-2.39,23.45,23.45,0,0,1,9.48,1.92l-1.28,3.56a21.5,21.5,0,0,0-8.41-1.83,8.16,8.16,0,0,0-5.07,1.4,4.58,4.58,0,0,0-1.82,3.84,5.88,5.88,0,0,0,.65,3,6.77,6.77,0,0,0,2.27,2.15,27.08,27.08,0,0,0,4.89,2.13q5.53,2,7.56,4.23A8.22,8.22,0,0,1,233,242.63Z"/><path class="cls-1" d="M265,248.3v3.64h-19.5v-35H265v3.62H249.55v11.28H264v3.59h-14.5V248.3H265Z"/><path class="cls-1" d="M281.76,229.68v22.27H278v-35h6.12l11.09,28.89h0.19l11.17-28.89h6.09v35H308.6V229.39q0-4,.35-8.43h-0.21l-12,31h-3.27l-11.86-31h-0.19Q281.76,224.6,281.76,229.68Z"/><path class="cls-1" d="M327.53,251.94v-35h9.9q7,0,10.07,2.09t3.1,6.58a7.57,7.57,0,0,1-1.74,5.15,8.45,8.45,0,0,1-5,2.62v0.24q8,1.36,8,8.38a9,9,0,0,1-3.18,7.31q-3.18,2.63-8.87,2.63H327.53Zm4.07-31.47v11.47h6.7q4.31,0,6.2-1.36a5.08,5.08,0,0,0,1.89-4.43,4.75,4.75,0,0,0-2.09-4.38q-2.09-1.3-6.72-1.3h-6Zm7.29,28q8.54,0,8.54-6.68a5.58,5.58,0,0,0-2.18-4.9q-2.18-1.54-6.68-1.54h-7v13.11h7.29Z"/><path class="cls-1" d="M384.05,251.94h-19.5v-35h4.07v31.31h15.43v3.7Z"/><path class="cls-1" d="M404.77,251.94h-4.12V238.56L389,216.94h4.44l9.28,17.5,9.34-17.5h4.39l-11.68,21.44v13.57Z"/></g></svg>