<svg id="Layer_1" data-name="Layer 1" xmlns="http://www.w3.org/2000/svg" viewBox="0 0 102 56"><defs><style>.cls-1{fill:#333;}</style></defs><title>RGB_logo_webassembly</title><g id="no_text_big" data-name="no text big"><path class="cls-1" d="M34.1,49L8.26,10h6.62L34,39.13l3.49-5.6L21.85,10h6.62L47.58,39.05,51,33.57,35.29,10H41.9l0.15,0.23L66.74,48H60.12L54.3,38.67l-6.71,9.84L40.84,38.4Zm-24-38,24,36.21,6.73-10.64L47.6,46.72l6.74-9.88L60.68,47h4.21L41.36,11H37.16L52.22,33.55,47.6,40.9,27.93,11H23.71l15,22.52L34.06,41,14.34,11H10.12Z"/><polygon class="cls-1" points="60.27 27.35 68.08 15.32 88.77 47 94.19 47 68.07 7.01 57.55 23.17 60.27 27.35"/></g></svg>