<svg id="Layer_1" data-name="Layer 1" xmlns="http://www.w3.org/2000/svg" xmlns:xlink="http://www.w3.org/1999/xlink" viewBox="0 0 114 72.64"><defs><style>.cls-1{fill:#333;}.cls-2{fill:#5d3191;}.cls-3{fill:url(#linear-gradient);}</style><linearGradient id="linear-gradient" x1="50.56" y1="9.07" x2="96.62" y2="36.54" gradientUnits="userSpaceOnUse"><stop offset="0" stop-color="#855cd9"/><stop offset="0.58" stop-color="#359ad2"/><stop offset="1" stop-color="#00c3ce"/></linearGradient></defs><title>RGB_logo_webassembly</title><path class="cls-1" d="M18.86,57L16.64,65.8H14.52l-1.18-4.6q-0.06-.22-0.22-1t-0.19-1.05a9.3,9.3,0,0,1-.18,1l-0.22,1L11.35,65.8H9.25L7,57H8.84L10,61.82q0.31,1.4.43,2.29,0-.35.16-1t0.25-1.15L12.07,57h1.75l1.28,4.9q0.08,0.29.21,1,0.11,0.54.19,1.16,0.05-.4.19-1.14t0.24-1.16L17,57h1.83Z"/><path class="cls-1" d="M26.32,64.27V65.8h-5V57h5v1.52H23.14v1.92h3V62h-3v2.26h3.18Z"/><path class="cls-1" d="M29.46,65.8V57h2.72a5.26,5.26,0,0,1,2.7.53,1.84,1.84,0,0,1,.84,1.69,2.13,2.13,0,0,1-.37,1.28,1.48,1.48,0,0,1-1,.61v0.06a1.94,1.94,0,0,1,1.19.69,2.52,2.52,0,0,1-.49,3.23,3.75,3.75,0,0,1-2.34.67H29.46Zm1.86-7.23v1.94H32.4a2,2,0,0,0,1.09-.23,0.85,0.85,0,0,0,.34-0.75,0.79,0.79,0,0,0-.37-0.74,2.36,2.36,0,0,0-1.17-.22h-1ZM32.46,62H31.32v2.28h1.2A1.8,1.8,0,0,0,33.65,64a1.08,1.08,0,0,0,.37-0.9Q34,62,32.46,62Z"/><path class="cls-1" d="M45.66,65.8H44.61L43.52,63H40L38.94,65.8h-1L41.36,57h0.86Zm-5.29-3.7H43.2l-1-2.71q-0.21-.56-0.41-1.26a11,11,0,0,1-.37,1.26Z"/><path class="cls-1" d="M53.11,63.47a2.15,2.15,0,0,1-.83,1.8,3.74,3.74,0,0,1-2.33.65,5.55,5.55,0,0,1-2.34-.4v-1A6.28,6.28,0,0,0,50,65a2.58,2.58,0,0,0,1.53-.38,1.26,1.26,0,0,0,.52-1.08,1.35,1.35,0,0,0-.18-0.74,1.78,1.78,0,0,0-.62-0.54,8,8,0,0,0-1.3-.56,4.16,4.16,0,0,1-1.75-1,2.31,2.31,0,0,1-.53-1.59,1.92,1.92,0,0,1,.76-1.59,3.25,3.25,0,0,1,2-.6,5.86,5.86,0,0,1,2.37.48l-0.32.89a5.38,5.38,0,0,0-2.1-.46,2,2,0,0,0-1.27.35,1.14,1.14,0,0,0-.46,1,1.47,1.47,0,0,0,.16.74,1.69,1.69,0,0,0,.57.54,6.77,6.77,0,0,0,1.22.53A4.69,4.69,0,0,1,52.6,62,2.06,2.06,0,0,1,53.11,63.47Z"/><path class="cls-1" d="M61.16,63.47a2.15,2.15,0,0,1-.83,1.8,3.74,3.74,0,0,1-2.33.65,5.55,5.55,0,0,1-2.34-.4v-1a6.28,6.28,0,0,0,2.43.49,2.58,2.58,0,0,0,1.53-.38,1.26,1.26,0,0,0,.52-1.08A1.35,1.35,0,0,0,60,62.83a1.78,1.78,0,0,0-.62-0.54,8,8,0,0,0-1.3-.56,4.16,4.16,0,0,1-1.75-1,2.31,2.31,0,0,1-.53-1.59,1.92,1.92,0,0,1,.76-1.59,3.25,3.25,0,0,1,2-.6,5.86,5.86,0,0,1,2.37.48l-0.32.89a5.38,5.38,0,0,0-2.1-.46,2,2,0,0,0-1.27.35,1.14,1.14,0,0,0-.46,1,1.47,1.47,0,0,0,.16.74,1.69,1.69,0,0,0,.57.54,6.77,6.77,0,0,0,1.22.53A4.69,4.69,0,0,1,60.64,62,2.06,2.06,0,0,1,61.16,63.47Z"/><path class="cls-1" d="M69.15,64.89V65.8H64.27V57h4.87V58H65.29v2.82h3.62v0.9H65.29v3.22h3.86Z"/><path class="cls-1" d="M73.34,60.23V65.8H72.4V57h1.53l2.77,7.22h0L79.55,57h1.52V65.8h-1V60.16q0-1,.09-2.11H80.08l-3,7.75H76.27l-3-7.75h0Q73.34,59,73.34,60.23Z"/><path class="cls-1" d="M84.78,65.8V57h2.47a4.64,4.64,0,0,1,2.52.52,1.84,1.84,0,0,1,.77,1.65,1.89,1.89,0,0,1-.44,1.29,2.11,2.11,0,0,1-1.26.65v0.06a2,2,0,0,1,2,2.09,2.24,2.24,0,0,1-.79,1.83,3.38,3.38,0,0,1-2.22.66H84.78Zm1-7.87V60.8h1.68A2.72,2.72,0,0,0,89,60.46a1.27,1.27,0,0,0,.47-1.11A1.19,1.19,0,0,0,89,58.26a3.29,3.29,0,0,0-1.68-.33H85.8Zm1.82,7q2.13,0,2.13-1.67A1.39,1.39,0,0,0,89.21,62a2.91,2.91,0,0,0-1.67-.39H85.8v3.28h1.82Z"/><path class="cls-1" d="M98.91,65.8H94V57h1v7.83h3.86V65.8Z"/><path class="cls-1" d="M104.09,65.8h-1V62.45L100.15,57h1.11l2.32,4.38L105.92,57H107l-2.92,5.36V65.8Z"/><polygon class="cls-2" points="67.83 46.28 43.33 8.28 37.85 8.28 53.45 32.43 49.37 38.54 29.72 8.28 24.23 8.28 39.77 32.4 35.65 38.63 15.95 8.28 10.46 8.28 35.69 47.78 42.51 36.8 49.37 47.96 56.18 36.84 62.34 46.28 67.83 46.28"/><polygon class="cls-3" points="61.98 26.95 69.69 15.05 90.11 46.28 95.45 46.28 69.68 6.85 59.3 22.81 61.98 26.95"/></svg>