<svg id="Layer_1" data-name="Layer 1" xmlns="http://www.w3.org/2000/svg" xmlns:xlink="http://www.w3.org/1999/xlink" viewBox="0 0 228 145.28"><defs><style>.cls-1{fill:#333;}.cls-2{fill:#5d3191;}.cls-3{fill:url(#linear-gradient);}</style><linearGradient id="linear-gradient" x1="101.97" y1="17.37" x2="194.27" y2="72.43" gradientUnits="userSpaceOnUse"><stop offset="0" stop-color="#855cd9"/><stop offset="0.58" stop-color="#359ad2"/><stop offset="1" stop-color="#00c3ce"/></linearGradient></defs><title>RGB_logo_webassembly</title><path class="cls-1" d="M38.72,113.09l-4.46,17.5H30l-2.37-9.19q-0.12-.44-0.44-2t-0.37-2.1a18.6,18.6,0,0,1-.36,2.09l-0.44,2-2.37,9.16h-4.2L15,113.09h3.64l2.25,9.55q0.61,2.81.85,4.59,0.07-.69.31-2t0.5-2.29l2.55-9.8h3.5l2.55,9.8q0.16,0.57.41,2,0.21,1.08.39,2.31,0.11-.8.38-2.27t0.49-2.31l2.22-9.55h3.66Z"/><path class="cls-1" d="M53.62,127.53v3.06H43.55v-17.5H53.62v3H47.27V120h5.92v3H47.27v4.52h6.36Z"/><path class="cls-1" d="M59.91,130.59v-17.5h5.44a10.53,10.53,0,0,1,5.4,1.06,3.68,3.68,0,0,1,1.69,3.37,4.27,4.27,0,0,1-.73,2.57,3,3,0,0,1-2,1.22v0.12a3.87,3.87,0,0,1,2.39,1.37,5,5,0,0,1-1,6.46,7.49,7.49,0,0,1-4.69,1.34H59.91Zm3.71-14.46V120h2.15a3.94,3.94,0,0,0,2.19-.47,1.7,1.7,0,0,0,.67-1.5,1.58,1.58,0,0,0-.73-1.48,4.73,4.73,0,0,0-2.34-.44H63.62ZM65.91,123H63.62v4.56H66a3.59,3.59,0,0,0,2.26-.59,2.16,2.16,0,0,0,.73-1.8Q69,123,65.91,123Z"/><path class="cls-1" d="M92.31,130.59h-2.1L88,125H81l-2.15,5.56H76.8L83.72,113h1.72Zm-10.57-7.4h5.65l-2-5.43q-0.41-1.12-.81-2.53a21.94,21.94,0,0,1-.74,2.53Z"/><path class="cls-1" d="M107.22,125.94a4.3,4.3,0,0,1-1.67,3.6,7.47,7.47,0,0,1-4.67,1.29,11.1,11.1,0,0,1-4.67-.8v-2a12.56,12.56,0,0,0,4.87,1,5.16,5.16,0,0,0,3.05-.76,2.52,2.52,0,0,0,1-2.17,2.7,2.7,0,0,0-.37-1.48,3.55,3.55,0,0,0-1.23-1.08,16,16,0,0,0-2.59-1.12,8.32,8.32,0,0,1-3.49-2.06,4.63,4.63,0,0,1-1.06-3.18A3.85,3.85,0,0,1,97.94,114a6.49,6.49,0,0,1,4.09-1.2,11.73,11.73,0,0,1,4.74,1l-0.64,1.78a10.75,10.75,0,0,0-4.2-.92,4.08,4.08,0,0,0-2.53.7,2.29,2.29,0,0,0-.91,1.92,2.94,2.94,0,0,0,.33,1.49,3.39,3.39,0,0,0,1.14,1.08,13.54,13.54,0,0,0,2.45,1.06,9.37,9.37,0,0,1,3.78,2.11A4.11,4.11,0,0,1,107.22,125.94Z"/><path class="cls-1" d="M123.31,125.94a4.3,4.3,0,0,1-1.67,3.6,7.47,7.47,0,0,1-4.67,1.29,11.1,11.1,0,0,1-4.67-.8v-2a12.56,12.56,0,0,0,4.87,1,5.16,5.16,0,0,0,3.05-.76,2.52,2.52,0,0,0,1-2.17,2.7,2.7,0,0,0-.37-1.48,3.55,3.55,0,0,0-1.23-1.08,16,16,0,0,0-2.59-1.12,8.32,8.32,0,0,1-3.49-2.06,4.63,4.63,0,0,1-1.06-3.18A3.85,3.85,0,0,1,114,114a6.49,6.49,0,0,1,4.09-1.2,11.73,11.73,0,0,1,4.74,1l-0.64,1.78a10.75,10.75,0,0,0-4.2-.92,4.08,4.08,0,0,0-2.53.7,2.29,2.29,0,0,0-.91,1.92,2.94,2.94,0,0,0,.33,1.49,3.39,3.39,0,0,0,1.14,1.08,13.54,13.54,0,0,0,2.45,1.06,9.37,9.37,0,0,1,3.78,2.11A4.11,4.11,0,0,1,123.31,125.94Z"/><path class="cls-1" d="M139.28,128.77v1.82h-9.75v-17.5h9.75v1.81h-7.71v5.64h7.25v1.8h-7.25v6.44h7.71Z"/><path class="cls-1" d="M147.67,119.46v11.13h-1.87v-17.5h3.06l5.55,14.44h0.09l5.59-14.44h3v17.5h-2V119.31q0-2,.17-4.22h-0.11l-6,15.49h-1.64l-5.93-15.51h-0.09Q147.67,116.92,147.67,119.46Z"/><path class="cls-1" d="M170.56,130.59v-17.5h4.95a9.28,9.28,0,0,1,5,1,3.69,3.69,0,0,1,1.55,3.29,3.79,3.79,0,0,1-.87,2.57,4.23,4.23,0,0,1-2.52,1.31v0.12q4,0.68,4,4.19a4.49,4.49,0,0,1-1.59,3.66,6.76,6.76,0,0,1-4.44,1.32h-6.11Zm2-15.73v5.73h3.35a5.44,5.44,0,0,0,3.1-.68,2.54,2.54,0,0,0,.94-2.21,2.38,2.38,0,0,0-1-2.19,6.58,6.58,0,0,0-3.36-.65h-3Zm3.64,14q4.27,0,4.27-3.34a2.79,2.79,0,0,0-1.09-2.45,5.82,5.82,0,0,0-3.34-.77h-3.48v6.56h3.64Z"/><path class="cls-1" d="M198.82,130.59h-9.75v-17.5h2v15.65h7.71v1.85Z"/><path class="cls-1" d="M209.17,130.59h-2.06V123.9l-5.83-10.81h2.22l4.64,8.75,4.67-8.75H215l-5.84,10.72v6.78Z"/><polygon class="cls-2" points="136.64 92 87.64 16 76.68 16 107.89 64.07 99.73 76.41 60.42 16 49.44 16 80.53 64 72.28 76.57 32.88 16 21.9 16 72.37 94.77 86.01 72.7 99.73 94.97 113.35 72.92 125.68 92 136.64 92"/><polygon class="cls-3" points="124.95 52.9 140.37 29.32 181.21 92 191.9 92 140.35 12.91 119.58 44.73 124.95 52.9"/></svg>