<svg id="Layer_1" data-name="Layer 1" xmlns="http://www.w3.org/2000/svg" xmlns:xlink="http://www.w3.org/1999/xlink" viewBox="0 0 430 274"><defs><style>.cls-1{fill:#fff;}.cls-2{fill:#5d3191;}.cls-3{fill:url(#linear-gradient);}</style><linearGradient id="linear-gradient" x1="189.97" y1="29.81" x2="374.51" y2="139.89" gradientUnits="userSpaceOnUse"><stop offset="0" stop-color="#855cd9"/><stop offset="0.58" stop-color="#359ad2"/><stop offset="1" stop-color="#00c3ce"/></linearGradient></defs><title>RGB_logo_webassembly</title><path class="cls-1" d="M63.42,221.32l-8.91,35H46l-4.73-18.38q-0.24-.88-0.88-4t-0.75-4.2a37.21,37.21,0,0,1-.72,4.18L38.09,238l-4.73,18.33H25l-8.94-35H23.3l4.5,19.1Q29,246,29.5,249.6q0.13-1.38.63-4.08t1-4.59l5.11-19.6h7l5.11,19.6q0.32,1.14.82,4,0.43,2.15.77,4.63,0.21-1.6.76-4.55t1-4.63l4.44-19.1h7.32Z"/><path class="cls-1" d="M93.23,250.21v6.12H73.09v-35H93.23v6.09H80.52v7.69H92.35v6.07H80.52v9H93.23Z"/><path class="cls-1" d="M105.81,256.33v-35h10.88q7.42,0,10.8,2.11t3.38,6.74a8.54,8.54,0,0,1-1.46,5.13,5.92,5.92,0,0,1-3.94,2.45V238a7.74,7.74,0,0,1,4.77,2.74,10.09,10.09,0,0,1-2,12.91q-3.47,2.67-9.38,2.67H105.81Zm7.42-28.92v7.77h4.31a7.88,7.88,0,0,0,4.38-.93,3.4,3.4,0,0,0,1.34-3,3.17,3.17,0,0,0-1.46-3,9.46,9.46,0,0,0-4.68-.88h-3.88Zm4.58,13.67h-4.58v9.12H118a7.19,7.19,0,0,0,4.52-1.17,4.32,4.32,0,0,0,1.46-3.59Q124,241.09,117.81,241.09Z"/><path class="cls-1" d="M170.6,256.33h-4.2L162,245.21H148l-4.31,11.12h-4.12l13.83-35.14h3.43Zm-21.15-14.79h11.31l-4.07-10.85q-0.83-2.23-1.62-5.05a43.88,43.88,0,0,1-1.49,5.05Z"/><path class="cls-1" d="M200.42,247a8.59,8.59,0,0,1-3.34,7.21q-3.34,2.58-9.34,2.58t-9.35-1.6v-3.94a25.13,25.13,0,0,0,9.74,2,10.31,10.31,0,0,0,6.1-1.52,5,5,0,0,0,2.09-4.34,5.4,5.4,0,0,0-.73-3,7.1,7.1,0,0,0-2.46-2.15,32.05,32.05,0,0,0-5.19-2.24q-4.87-1.73-7-4.12a9.25,9.25,0,0,1-2.12-6.36,7.69,7.69,0,0,1,3-6.36,13,13,0,0,1,8.18-2.39,23.45,23.45,0,0,1,9.48,1.92l-1.28,3.56a21.5,21.5,0,0,0-8.41-1.83,8.16,8.16,0,0,0-5.07,1.4A4.58,4.58,0,0,0,183,229.7a5.88,5.88,0,0,0,.65,3,6.77,6.77,0,0,0,2.27,2.15,27.08,27.08,0,0,0,4.89,2.13q5.53,2,7.56,4.23A8.22,8.22,0,0,1,200.42,247Z"/><path class="cls-1" d="M232.6,247a8.59,8.59,0,0,1-3.34,7.21q-3.34,2.58-9.34,2.58t-9.35-1.6v-3.94a25.13,25.13,0,0,0,9.74,2,10.31,10.31,0,0,0,6.1-1.52,5,5,0,0,0,2.09-4.34,5.4,5.4,0,0,0-.73-3,7.1,7.1,0,0,0-2.46-2.15,32.05,32.05,0,0,0-5.19-2.24q-4.87-1.73-7-4.12a9.25,9.25,0,0,1-2.12-6.36,7.69,7.69,0,0,1,3-6.36,13,13,0,0,1,8.18-2.39,23.45,23.45,0,0,1,9.48,1.92l-1.28,3.56a21.5,21.5,0,0,0-8.41-1.83,8.16,8.16,0,0,0-5.07,1.4,4.58,4.58,0,0,0-1.82,3.84,5.88,5.88,0,0,0,.65,3,6.77,6.77,0,0,0,2.27,2.15A27.08,27.08,0,0,0,223,237q5.53,2,7.56,4.23A8.22,8.22,0,0,1,232.6,247Z"/><path class="cls-1" d="M264.54,252.69v3.64H245v-35h19.5v3.62H249.11v11.28h14.5v3.59h-14.5v12.87h15.43Z"/><path class="cls-1" d="M281.32,234.06v22.27h-3.75v-35h6.12l11.09,28.89H295l11.17-28.89h6.09v35h-4.07V233.77q0-4,.35-8.43H308.3l-12,31h-3.27l-11.86-31H281Q281.32,229,281.32,234.06Z"/><path class="cls-1" d="M327.1,256.33v-35H337q7,0,10.07,2.09t3.1,6.58a7.57,7.57,0,0,1-1.74,5.15,8.45,8.45,0,0,1-5,2.62V238q8,1.36,8,8.38a9,9,0,0,1-3.18,7.31q-3.18,2.63-8.87,2.63H327.1Zm4.07-31.47v11.47h6.7q4.31,0,6.2-1.36a5.08,5.08,0,0,0,1.89-4.43,4.75,4.75,0,0,0-2.09-4.38q-2.09-1.3-6.72-1.3h-6Zm7.29,28q8.54,0,8.54-6.68a5.58,5.58,0,0,0-2.18-4.9q-2.18-1.54-6.68-1.54h-7v13.11h7.29Z"/><path class="cls-1" d="M383.62,256.33h-19.5v-35h4.07v31.31h15.43v3.7Z"/><path class="cls-1" d="M404.34,256.33h-4.12V242.95l-11.65-21.63H393l9.28,17.5,9.34-17.5H416l-11.68,21.44v13.57Z"/><polygon class="cls-2" points="259.27 179 161.28 28 139.35 28 201.77 123.72 185.44 148.6 106.83 28 84.88 28 147.04 123.58 130.55 148.93 51.74 28 29.78 28 130.72 185.11 158.01 140.75 185.44 185.2 212.69 140.97 237.34 179 259.27 179"/><polygon class="cls-3" points="235.88 100.95 266.72 53.7 348.41 179 369.78 179 266.68 20.89 225.16 84.58 235.88 100.95"/></svg>